<?xml version="1.0" standalone="no"?>
<!DOCTYPE svg PUBLIC "-//W3C//DTD SVG 20010904//EN"
 "http://www.w3.org/TR/2001/REC-SVG-20010904/DTD/svg10.dtd">
<svg version="1.0" xmlns="http://www.w3.org/2000/svg"
 width="537.000000pt" height="537.000000pt" viewBox="0 0 537.000000 537.000000"
 preserveAspectRatio="xMidYMid meet">
<metadata>
Created by potrace 1.11, written by Peter Selinger 2001-2013
</metadata>
<g transform="translate(0.000000,537.000000) scale(0.100000,-0.100000)"
fill="#000000" stroke="none">
<path d="M3030 4975 c26 -15 24 -16 -32 -18 -13 -1 -26 -6 -30 -11 -5 -7 -11
-6 -18 4 -8 12 -10 10 -10 -10 0 -19 -3 -21 -9 -11 -8 12 -11 12 -25 -1 -8 -9
-12 -19 -8 -24 4 -5 -1 -2 -11 5 -15 12 -17 12 -11 -4 5 -12 4 -16 -3 -12 -13
8 -76 -17 -66 -26 3 -4 1 -7 -4 -7 -6 0 -14 6 -16 13 -3 6 -6 1 -6 -13 -1 -20
-3 -22 -11 -10 -8 12 -10 10 -11 -10 0 -14 -3 -19 -6 -13 -3 9 -11 9 -29 -3
-13 -9 -21 -21 -17 -27 3 -5 1 -7 -5 -4 -14 9 -43 -3 -36 -14 3 -5 -2 -12 -10
-15 -9 -3 -16 -12 -16 -19 0 -7 -7 -16 -16 -19 -15 -6 -15 -4 -3 11 13 16 12
17 -3 4 -10 -7 -18 -19 -18 -26 0 -7 -7 -16 -16 -19 -8 -3 -12 -10 -9 -16 3
-5 -2 -10 -11 -10 -10 0 -15 -3 -11 -6 3 -4 -4 -15 -16 -25 -12 -10 -18 -18
-13 -19 6 0 1 -7 -10 -16 -10 -8 -13 -12 -5 -8 9 5 12 3 7 -4 -4 -7 -15 -12
-25 -12 -13 0 -18 -7 -18 -23 0 -34 -33 -82 -45 -65 -6 8 -7 5 -3 -11 4 -13 3
-21 -2 -18 -5 3 -10 -4 -11 -16 -3 -30 -8 -49 -16 -69 -4 -9 -5 -22 -2 -27 4
-6 -2 -8 -14 -6 -18 3 -19 1 -8 -18 10 -19 9 -20 -4 -10 -12 11 -15 5 -17 -35
-2 -26 -3 -54 -3 -62 -1 -8 -5 -21 -11 -27 -6 -8 -6 -13 0 -13 5 0 10 -7 10
-15 0 -8 -5 -11 -10 -8 -6 4 -8 0 -4 -10 3 -9 2 -19 -4 -23 -6 -4 -5 -12 3
-22 8 -9 8 -13 2 -9 -7 4 -15 -1 -19 -10 -3 -10 -1 -19 4 -21 7 -2 5 -9 -4
-18 -16 -16 -9 -48 9 -37 6 4 5 -1 -3 -10 -11 -14 -11 -17 0 -17 8 0 5 -6 -7
-15 -19 -15 -19 -15 1 -9 16 5 17 4 5 -5 -21 -15 -43 -14 -35 2 4 6 1 5 -7 -4
-7 -9 -23 -15 -35 -14 -13 1 -23 -3 -23 -9 0 -6 -5 -4 -10 4 -9 13 -10 13 -10
0 0 -9 -3 -11 -8 -5 -10 14 -37 13 -37 -2 0 -17 -15 -29 -16 -12 0 8 -4 4 -10
-9 -6 -15 -13 -21 -21 -16 -7 5 -20 9 -28 9 -8 1 -22 2 -31 3 -9 1 -19 12 -22
23 -4 15 -12 20 -24 17 -20 -5 -46 15 -35 26 3 4 -2 4 -13 0 -15 -6 -17 -4
-12 10 5 12 3 16 -5 14 -15 -5 -68 44 -68 63 0 12 -2 12 -9 0 -7 -11 -10 -9
-16 8 -3 11 -12 21 -20 21 -7 0 -16 7 -19 16 -3 8 -2 12 3 9 5 -3 13 -1 16 5
4 6 3 10 -2 9 -24 -4 -53 2 -48 11 3 6 -1 10 -10 10 -9 0 -13 5 -10 10 3 6 2
10 -4 10 -6 0 -8 6 -5 13 3 9 -3 13 -18 12 -13 -1 -29 2 -36 8 -9 7 -11 5 -5
-9 6 -16 5 -17 -9 -6 -16 13 -35 1 -24 -16 2 -4 -4 -13 -14 -20 -16 -10 -18
-9 -13 5 5 13 3 13 -13 -3 -18 -17 -18 -20 -4 -32 13 -10 12 -11 -4 -5 -12 4
-17 3 -13 -4 4 -6 0 -16 -8 -23 -8 -7 -12 -16 -9 -21 3 -5 0 -9 -5 -9 -6 0
-10 -3 -10 -7 3 -20 -2 -26 -11 -13 -7 11 -10 11 -10 2 0 -7 -4 -10 -10 -7 -6
3 -7 -1 -4 -9 4 -10 1 -16 -7 -16 -12 0 -12 -2 0 -9 9 -6 10 -11 2 -15 -6 -4
-9 -12 -6 -17 4 -5 1 -10 -4 -10 -6 -1 -15 -2 -20 -3 -6 0 -16 -7 -23 -15 -10
-10 -10 -12 0 -7 6 4 12 2 12 -3 0 -6 -4 -11 -9 -11 -5 0 -8 -11 -5 -25 2 -14
1 -25 -3 -25 -12 0 -11 -144 1 -152 7 -5 7 -8 -1 -8 -7 0 -13 -5 -13 -11 0 -5
6 -7 13 -3 9 6 9 4 1 -7 -11 -15 -12 -154 -1 -165 3 -4 2 -14 -3 -24 -5 -10
-6 -20 -3 -24 11 -10 9 -175 -1 -168 -5 3 -7 -4 -4 -16 4 -16 2 -19 -10 -15
-10 4 -13 2 -8 -5 4 -8 0 -12 -11 -13 -10 0 -13 -3 -5 -6 17 -7 15 -21 -4 -19
-11 1 -17 -10 -19 -36 -4 -39 -30 -88 -47 -88 -6 0 -5 -7 2 -15 11 -13 10 -14
-2 -10 -12 5 -16 -1 -17 -22 -1 -47 -4 -63 -12 -63 -4 0 -9 -10 -11 -22 -2
-12 -10 -24 -18 -26 -13 -5 -13 -3 0 14 10 14 11 16 0 7 -16 -15 -22 -55 -6
-46 6 4 6 0 -1 -8 -7 -8 -13 -36 -15 -62 -2 -28 -8 -47 -15 -47 -6 0 -15 -5
-19 -12 -5 -7 -3 -8 7 -3 12 8 12 6 0 -8 -7 -9 -10 -17 -6 -17 4 0 2 -7 -5
-15 -7 -8 -17 -12 -24 -8 -6 3 -3 -3 8 -15 15 -17 16 -23 5 -27 -9 -3 -14 -18
-13 -40 2 -28 -2 -35 -15 -33 -15 3 -16 -29 -18 -354 -2 -247 0 -358 8 -358 5
0 7 4 4 10 -4 6 1 7 11 3 14 -5 15 -7 1 -15 -10 -5 -14 -15 -10 -25 5 -12 3
-14 -7 -8 -9 5 -11 4 -6 -3 5 -8 13 -9 24 -3 14 7 18 5 18 -10 0 -10 -7 -19
-16 -20 -10 0 -11 -2 -2 -6 6 -2 12 -12 12 -21 0 -8 8 -25 17 -36 17 -20 17
-20 1 -7 -16 12 -18 11 -18 -8 0 -12 3 -20 8 -18 4 3 8 -8 9 -23 1 -16 10 -38
19 -48 9 -11 19 -43 21 -73 6 -70 6 -73 18 -81 6 -5 4 -8 -5 -8 -13 0 -13 -1
0 -11 11 -8 12 -12 3 -16 -7 -2 -13 -9 -13 -14 0 -6 5 -7 12 -3 7 5 8 3 2 -7
-9 -14 -14 -34 -16 -56 -1 -7 -6 -13 -12 -13 -6 0 -5 -4 3 -9 11 -7 9 -10 -9
-16 -18 -6 -20 -9 -9 -16 11 -6 8 -9 -8 -9 -16 0 -21 -4 -17 -15 5 -11 2 -14
-12 -9 -17 6 -17 5 1 -9 15 -13 16 -16 5 -17 -13 0 -13 -1 0 -10 8 -5 10 -10
4 -10 -6 0 -11 -10 -10 -23 1 -16 -4 -21 -17 -19 -17 3 -18 -10 -17 -192 1
-166 4 -196 16 -196 9 0 12 5 8 13 -5 9 -3 9 7 -1 12 -11 12 -14 -1 -22 -12
-8 -12 -10 4 -10 11 0 17 -3 13 -6 -8 -8 16 -33 25 -27 5 2 8 -3 8 -11 0 -9 5
-16 10 -16 6 0 10 -6 10 -13 0 -8 12 -24 27 -38 15 -13 23 -17 18 -9 -6 9 -2
7 7 -3 10 -11 15 -24 11 -30 -4 -6 0 -8 11 -4 10 4 24 -1 37 -14 11 -11 25
-17 32 -12 7 4 5 -2 -3 -12 -9 -11 -10 -16 -2 -11 6 4 12 3 12 -1 0 -13 64
-12 72 1 5 8 8 7 8 -3 0 -11 3 -11 17 0 9 8 14 9 10 2 -5 -7 0 -9 13 -6 11 3
20 10 20 15 0 5 -5 6 -12 2 -7 -4 -8 -3 -4 5 6 9 11 9 21 1 10 -8 15 -8 21 1
5 8 3 10 -7 4 -8 -4 -5 1 6 12 13 13 24 17 31 12 7 -6 16 -4 24 6 7 8 17 12
23 8 5 -3 7 -1 4 4 -4 6 1 17 10 24 11 10 14 10 9 2 -5 -9 -2 -11 9 -7 9 4 14
13 11 21 -3 8 -2 11 3 8 5 -3 12 -1 16 5 4 6 11 8 16 5 5 -4 9 -1 9 6 0 7 8 5
22 -7 13 -12 18 -13 13 -4 -6 11 -3 10 12 -3 11 -9 23 -14 26 -10 4 3 7 -3 7
-15 0 -12 5 -22 11 -22 5 0 7 -5 4 -10 -3 -6 -1 -10 4 -10 6 0 11 6 11 13 0 6
10 -3 21 -21 12 -17 25 -32 31 -32 5 0 6 -5 3 -10 -4 -6 -3 -10 2 -9 19 3 46
-1 40 -7 -8 -8 18 -34 33 -34 6 0 8 -5 4 -12 -5 -8 -2 -9 9 -5 10 3 17 2 17
-3 0 -5 9 -12 21 -15 11 -4 18 -9 15 -12 -7 -7 19 -33 33 -33 6 0 11 -4 11
-10 0 -5 3 -9 8 -9 19 3 42 -2 41 -8 -3 -20 2 -30 16 -31 8 -1 22 -3 30 -4 8
-1 15 -5 15 -10 0 -4 3 -7 8 -6 4 1 17 -1 29 -6 19 -6 21 -11 12 -27 -9 -19
-9 -19 10 -10 14 8 22 8 26 0 4 -6 18 -8 31 -5 13 4 24 3 24 -2 0 -5 14 -8 30
-7 17 1 30 -2 30 -7 0 -5 5 -6 11 -2 6 3 15 0 20 -7 7 -12 9 -11 10 1 0 10 3
8 9 -5 6 -14 9 -15 9 -5 1 12 12 15 49 14 26 -1 47 -3 47 -4 0 -1 10 -3 23 -6
16 -3 21 0 16 8 -5 10 -4 10 6 1 11 -10 18 -9 34 5 11 9 16 12 13 6 -4 -7 0
-15 9 -18 8 -3 12 -2 9 4 -5 9 15 15 38 11 4 -1 17 4 29 10 16 9 19 8 12 -3
-6 -10 -4 -11 7 -3 8 6 29 10 47 9 17 -1 30 2 26 7 -3 5 7 4 23 -2 15 -5 25
-7 21 -4 -10 10 24 45 44 45 9 0 19 4 22 9 3 4 19 11 36 14 16 4 30 11 30 17
0 6 -5 8 -12 4 -7 -4 -8 -3 -4 5 4 6 11 9 15 6 10 -6 57 34 54 46 -2 5 0 8 5
6 9 -3 52 40 52 53 0 5 5 10 11 10 5 0 7 -6 3 -12 -5 -10 -3 -10 7 0 12 11 12
14 -1 22 -13 9 -13 10 0 10 8 0 24 11 34 25 10 13 22 22 27 19 5 -3 9 0 9 6 0
5 14 24 30 42 17 17 30 27 30 23 0 -4 7 -2 15 5 17 14 16 14 34 -15 10 -16 11
-16 7 -2 -3 11 -2 15 4 12 6 -3 10 -15 10 -26 0 -11 7 -19 18 -19 14 0 15 -2
2 -10 -13 -8 -12 -10 3 -10 10 0 15 -4 12 -10 -3 -6 1 -7 10 -4 11 5 18 0 22
-15 3 -13 12 -20 22 -19 10 2 15 -3 13 -14 -2 -11 3 -18 13 -18 8 0 15 -7 15
-16 0 -8 5 -12 10 -9 6 3 10 1 10 -5 0 -6 4 -8 10 -5 6 3 7 -1 4 -9 -3 -9 -1
-16 6 -16 17 0 42 -28 35 -40 -3 -6 1 -7 9 -4 11 4 16 0 16 -11 0 -11 5 -15
14 -12 8 3 16 -2 19 -15 4 -13 10 -17 19 -12 11 6 11 5 0 -8 -11 -14 -10 -16
7 -11 13 3 21 1 21 -6 0 -7 -4 -9 -10 -6 -5 3 -10 1 -10 -6 0 -7 10 -9 26 -6
16 3 28 0 31 -8 2 -8 11 -16 19 -19 8 -3 13 -2 10 3 -4 5 3 7 15 4 15 -4 19
-11 15 -26 -4 -15 -2 -17 7 -8 12 12 31 15 24 4 -3 -5 2 -15 11 -23 14 -13 15
-12 9 3 -3 9 -2 17 3 17 6 0 10 -6 10 -12 0 -8 12 -13 29 -13 16 0 27 3 24 7
-2 5 7 4 20 -1 16 -6 28 -6 36 2 8 8 11 8 11 -1 0 -14 146 -12 169 2 11 7 12
6 6 -5 -7 -11 -5 -11 11 1 36 27 53 54 43 66 -7 8 -6 15 2 19 8 6 7 10 -2 16
-12 7 -12 9 0 9 11 0 11 3 1 15 -10 12 -10 15 1 15 12 0 12 2 1 9 -17 11 -17
21 0 32 10 7 10 9 0 9 -7 0 -10 5 -6 12 4 7 3 8 -5 4 -6 -4 -9 -11 -6 -16 3
-5 1 -11 -4 -15 -10 -6 -8 16 4 47 4 11 0 20 -14 28 -14 7 -21 21 -21 38 0 16
-6 34 -12 41 -9 10 -9 12 -1 7 8 -4 11 1 10 14 -1 11 -4 20 -7 20 -3 0 -6 9
-7 20 -1 13 2 18 10 13 9 -5 8 -2 0 9 -7 8 -10 18 -7 21 4 3 3 14 -1 24 -5 10
-7 21 -7 26 1 4 -2 7 -7 7 -9 0 -31 45 -34 71 -2 8 -6 20 -11 28 -5 8 -3 16 5
22 12 7 12 9 0 9 -9 0 -12 9 -9 31 3 20 0 33 -9 36 -7 3 -10 9 -7 14 3 5 -3 6
-13 2 -10 -3 -15 -3 -11 2 4 4 3 14 -3 21 -5 7 -12 30 -13 51 -2 21 -5 39 -6
41 -1 1 -3 6 -4 11 0 5 -5 13 -10 18 -5 5 -6 2 -1 -6 5 -9 3 -12 -6 -9 -8 3
-13 13 -11 22 2 9 -4 19 -12 22 -9 3 -14 10 -11 14 3 5 1 11 -4 15 -6 3 -8 12
-4 20 3 8 0 15 -7 15 -6 0 -8 5 -4 12 5 8 2 9 -9 5 -15 -6 -22 3 -18 26 0 4
-4 7 -9 7 -6 0 -10 5 -10 11 0 6 -7 17 -15 26 -8 8 -12 20 -8 26 3 7 2 9 -2 4
-12 -10 -45 22 -38 39 3 8 -1 14 -8 14 -11 0 -11 3 1 10 13 9 13 10 0 10 -9 0
-11 3 -5 8 6 4 11 18 11 32 1 14 7 47 15 73 12 44 15 47 28 30 13 -17 13 -17
7 1 -4 11 -1 23 6 29 9 6 8 7 -4 3 -10 -3 -20 0 -24 6 -4 6 -3 8 3 5 6 -4 17
1 24 10 12 14 12 16 -1 8 -12 -7 -13 -6 -4 6 6 8 12 32 13 54 3 35 5 60 10 88
0 5 7 5 14 1 7 -5 7 -2 -2 10 -12 15 -12 17 0 14 8 -2 13 3 11 10 -3 16 15 16
21 0 2 -7 4 3 3 23 -2 19 -6 40 -10 47 -5 8 -1 10 11 5 16 -6 16 -5 4 10 -7 9
-9 17 -4 17 5 0 8 12 7 28 -1 15 6 36 15 46 9 11 10 16 4 12 -16 -9 -16 -4 -2
28 7 14 15 24 18 21 4 -2 13 6 21 18 12 20 12 21 -3 8 -12 -9 -17 -10 -17 -2
0 6 7 14 16 18 13 5 13 7 2 14 -7 5 -8 9 -3 9 6 0 10 29 10 66 0 36 3 68 8 71
4 2 7 18 7 34 0 22 4 28 13 23 7 -5 6 0 -3 11 -9 11 -10 16 -2 11 6 -4 12 -3
12 3 0 5 -5 11 -11 13 -7 2 -4 10 7 18 14 12 16 12 9 1 -6 -10 -4 -12 4 -6 9
5 10 10 2 18 -15 15 -14 40 2 31 7 -5 6 0 -3 11 -9 11 -10 16 -2 11 6 -4 12
-2 12 3 0 6 -4 11 -8 11 -4 0 -8 11 -8 24 0 13 5 22 11 20 6 -3 11 4 11 15 0
11 -4 17 -8 15 -4 -3 -8 2 -8 11 0 9 4 14 9 11 13 -9 7 19 -8 38 -7 9 -9 21
-5 28 18 28 15 60 -7 79 -12 10 -18 19 -13 19 6 0 15 -5 20 -10 7 -7 11 -6 11
4 0 8 -3 15 -6 14 -17 -2 -31 3 -30 10 4 24 -2 52 -11 47 -13 -8 -13 1 0 26 7
12 7 19 1 19 -5 0 -9 13 -9 30 1 16 -4 36 -11 44 -9 11 -9 15 1 18 8 3 6 7 -6
11 -10 4 -15 3 -11 -3 3 -6 1 -10 -4 -10 -6 0 -11 8 -11 18 0 10 -4 22 -9 28
-5 5 -12 20 -16 33 -6 18 -4 22 6 15 11 -6 12 -5 2 8 -7 8 -9 18 -5 23 4 4 -2
5 -14 1 -14 -4 -21 -2 -21 8 0 9 5 12 11 9 6 -4 -2 6 -17 22 -19 19 -24 31
-16 36 8 4 4 14 -12 30 -15 15 -17 21 -6 16 9 -3 17 -2 17 3 0 6 -7 10 -16 10
-9 0 -18 9 -21 20 -3 11 -8 18 -12 16 -6 -4 -10 11 -13 52 -1 6 -5 12 -10 12
-5 0 -3 10 3 23 12 21 11 21 -7 7 -18 -14 -18 -14 -1 6 9 11 14 24 10 27 -3 4
2 7 13 7 16 0 17 2 4 10 -13 8 -12 10 3 10 11 0 15 5 11 11 -4 8 0 8 15 0 17
-10 20 -9 15 4 -4 8 -1 15 5 15 6 0 11 7 11 15 0 8 5 15 11 15 5 0 7 5 4 10
-5 9 16 15 38 11 5 -1 6 2 3 7 -3 5 3 18 14 29 10 12 16 25 12 29 -4 5 1 2 11
-5 15 -12 17 -11 18 5 1 11 1 22 0 27 0 4 2 6 6 6 20 -3 34 2 29 10 -3 5 1 14
9 21 13 11 15 10 10 -6 -4 -11 0 -9 8 6 9 14 13 28 11 32 -2 3 1 10 7 14 8 5
9 3 4 -7 -5 -8 9 4 31 26 21 22 38 43 36 48 -2 4 3 7 11 7 8 0 18 7 21 16 3 8
10 12 16 9 6 -3 7 1 4 9 -3 9 -1 16 6 16 6 0 8 5 5 10 -5 9 7 14 27 11 7 -1
32 60 29 73 -1 5 4 4 13 -3 11 -9 16 -9 22 0 5 8 3 10 -7 5 -8 -4 -6 -1 3 7
10 8 15 17 11 20 -3 4 -1 7 6 7 7 0 10 3 8 8 -6 10 50 61 60 53 4 -3 1 2 -6
12 -9 11 -10 17 -2 17 8 0 9 13 4 42 -6 42 -25 73 -37 61 -3 -4 -6 0 -6 7 0 7
-3 11 -6 7 -9 -9 -44 25 -37 36 3 6 1 7 -6 3 -6 -4 -18 -4 -24 1 -7 4 -4 0 6
-9 11 -10 15 -18 10 -18 -5 0 -19 9 -31 20 -12 12 -22 18 -22 14 0 -3 -7 -1
-15 6 -10 8 -15 9 -15 2 0 -6 8 -16 18 -21 9 -6 12 -11 5 -11 -6 0 -15 5 -18
10 -4 6 -11 7 -17 4 -6 -4 -8 -2 -5 3 4 6 0 14 -9 17 -21 8 -24 8 -24 -5 0 -5
5 -7 12 -3 7 4 8 3 4 -4 -4 -6 -13 -9 -21 -6 -8 4 -13 9 -11 13 2 3 -15 6 -39
6 -24 0 -41 -3 -39 -7 2 -4 0 -9 -6 -13 -5 -3 -10 2 -10 12 -1 17 -1 17 -11 1
-5 -10 -15 -18 -21 -18 -7 0 -6 5 2 15 16 20 6 19 -14 -1 -9 -9 -16 -11 -16
-4 0 6 -5 8 -10 5 -6 -4 -7 -11 -4 -17 4 -7 2 -8 -5 -4 -6 4 -9 12 -6 17 4 5
1 9 -4 9 -6 0 -11 -10 -11 -22 0 -18 -2 -20 -9 -9 -7 11 -13 12 -23 3 -11 -9
-18 -9 -28 1 -10 9 -11 9 -6 0 5 -9 -1 -13 -16 -14 -13 -1 -34 -3 -48 -5 -14
-2 -44 -4 -67 -6 -24 -1 -43 -7 -43 -13 0 -5 -5 -3 -10 5 -9 13 -10 13 -10 0
0 -13 -1 -13 -10 0 -9 13 -10 13 -11 0 -1 -8 -1 -19 0 -23 1 -5 -3 -6 -9 -2
-6 3 -7 12 -3 18 4 8 1 7 -9 -1 -13 -10 -17 -10 -22 0 -3 7 -3 2 0 -11 4 -16
3 -21 -5 -17 -6 4 -11 2 -11 -3 0 -6 -5 -11 -11 -11 -5 0 -7 6 -4 13 4 6 1 5
-7 -4 -7 -9 -19 -14 -25 -12 -7 3 -13 1 -13 -4 0 -5 -12 -9 -27 -8 -21 0 -28
-5 -27 -18 2 -14 -1 -15 -12 -6 -11 9 -14 8 -14 -5 0 -10 -4 -15 -9 -11 -5 3
-15 -1 -23 -8 -7 -8 -19 -12 -26 -9 -7 2 -20 -2 -28 -9 -13 -10 -17 -10 -26 2
-8 11 -9 10 -4 -4 4 -13 -2 -20 -22 -28 -15 -6 -29 -10 -32 -10 -3 0 -9 -7
-13 -15 -7 -12 -12 -12 -22 -4 -8 7 -19 9 -24 6 -5 -4 -12 -2 -16 4 -4 6 -11
8 -16 5 -5 -4 -9 -1 -9 5 0 7 -7 10 -15 6 -8 -3 -15 -1 -15 4 0 5 -8 6 -17 3
-16 -6 -16 -5 -4 10 12 15 12 17 -4 11 -14 -6 -16 -4 -10 7 4 8 5 11 1 7 -12
-11 -60 11 -74 33 -8 12 -9 18 -3 14 7 -3 11 2 11 14 0 12 -6 21 -12 21 -9 0
-9 3 -3 8 6 4 10 14 10 22 -1 17 26 41 37 34 5 -3 8 0 8 7 0 6 8 9 20 6 10 -3
19 -2 18 2 -1 3 2 14 7 24 6 15 10 16 16 5 7 -11 11 -10 19 2 5 8 10 11 10 5
0 -5 5 -2 11 8 9 15 13 16 27 5 14 -11 15 -10 9 6 -6 16 -5 17 8 6 9 -7 15 -9
14 -4 -5 27 1 36 16 24 13 -11 14 -10 10 3 -5 11 4 19 29 28 20 7 36 19 36 26
0 7 4 13 8 13 5 0 17 8 28 18 10 10 24 20 29 23 6 2 9 7 7 12 -1 4 3 7 9 7 5
0 7 6 3 13 -4 6 -4 9 1 5 12 -12 47 12 41 28 -4 12 -2 12 14 4 15 -8 18 -8 14
3 -3 8 2 20 10 27 9 7 13 17 10 22 -4 6 1 6 13 0 16 -9 19 -7 20 10 1 12 7 24
14 28 6 4 9 13 5 19 -5 7 -1 9 9 5 10 -4 15 -2 13 7 -2 8 4 14 12 13 9 -1 17
6 18 15 4 35 8 51 17 58 4 4 5 1 1 -7 -4 -8 -1 -7 8 4 8 10 19 15 24 12 5 -3
7 6 4 21 -4 19 -2 24 8 18 8 -5 11 -4 6 3 -10 17 16 64 34 59 10 -2 16 2 16
14 0 10 -4 15 -9 12 -5 -3 -4 3 2 13 5 11 17 36 27 56 9 21 20 35 25 32 5 -3
9 -1 9 5 0 5 -6 12 -12 14 -7 3 -2 6 12 7 14 1 19 4 12 7 -6 2 -9 10 -5 16 15
24 11 101 -6 114 -14 12 -14 12 3 6 14 -4 17 -3 12 5 -6 9 -106 12 -394 12
-338 -1 -384 -3 -362 -15z m183 -141 c3 -18 1 -24 -9 -20 -8 3 -14 -1 -14 -9
0 -8 -5 -15 -11 -15 -5 0 -7 6 -3 13 4 6 -5 -1 -21 -16 -16 -15 -34 -26 -41
-23 -7 3 -16 -3 -19 -13 -3 -10 -15 -27 -28 -37 -14 -13 -18 -14 -12 -4 10 15
-10 -5 -41 -43 -8 -10 -20 -15 -26 -11 -7 4 -8 3 -4 -5 4 -6 0 -14 -8 -17 -9
-3 -14 -9 -12 -13 2 -3 -2 -15 -10 -26 -10 -14 -14 -15 -15 -4 0 8 -5 3 -11
-11 -6 -14 -10 -28 -10 -32 1 -5 -2 -8 -7 -8 -5 0 -13 -9 -16 -21 -4 -13 -12
-18 -21 -15 -8 3 -12 2 -9 -3 3 -5 0 -13 -6 -16 -5 -4 -8 -13 -5 -21 3 -8 1
-14 -5 -14 -6 0 -8 -4 -4 -9 3 -5 -1 -16 -9 -24 -8 -8 -12 -18 -8 -21 3 -4 -4
-9 -16 -13 -18 -4 -20 -8 -11 -19 10 -12 8 -13 -7 -7 -17 6 -17 5 -5 -10 7 -9
9 -17 4 -17 -5 0 -10 -12 -11 -27 -1 -16 -7 -30 -12 -31 -6 -2 -8 -8 -4 -13 3
-5 0 -9 -5 -9 -6 0 -11 -5 -11 -11 0 -5 5 -7 12 -3 7 4 8 3 4 -5 -4 -6 -17 -9
-29 -6 -12 2 -16 2 -9 -1 6 -3 12 -12 12 -20 0 -8 -6 -13 -12 -12 -7 2 -12 -3
-10 -10 1 -8 -2 -11 -9 -6 -7 4 -25 7 -41 6 -15 0 -26 3 -23 8 7 11 -22 7 -32
-5 -4 -4 -2 -5 6 0 9 5 12 4 8 -3 -9 -14 -48 -3 -41 12 3 6 -1 3 -8 -6 -9 -11
-19 -14 -28 -8 -8 5 -18 6 -22 4 -4 -3 -8 0 -8 5 0 21 -2 26 -13 39 -8 10 -7
12 3 10 17 -4 20 22 6 41 -9 12 -8 13 3 6 11 -6 13 -4 8 8 -3 10 -2 17 3 17 6
0 9 6 7 13 -1 6 4 11 12 9 12 -3 12 -1 1 15 -8 10 -11 15 -6 11 10 -8 36 14
29 25 -2 4 2 7 9 7 10 0 10 2 -1 9 -11 7 -10 14 8 40 12 17 19 36 15 42 -4 8
-3 9 4 5 7 -4 12 -2 12 3 0 6 5 11 11 11 5 0 7 -5 3 -12 -4 -7 -3 -8 4 -4 6 4
9 13 5 21 -3 8 0 15 6 15 6 0 8 7 4 17 -4 11 -3 14 5 9 7 -4 12 -1 12 8 0 9 5
16 11 16 5 0 8 4 4 9 -3 6 4 8 15 6 11 -2 18 0 15 5 -9 14 18 50 36 50 9 0 20
7 23 16 3 8 11 12 17 8 7 -4 9 -3 5 4 -7 12 32 44 45 36 4 -2 10 5 14 16 5 16
10 18 25 10 13 -7 21 -7 26 2 5 7 3 8 -6 3 -8 -5 -11 -3 -8 6 3 8 11 13 17 12
6 -2 11 2 11 8 0 5 5 7 10 4 6 -3 10 -3 10 2 0 4 15 9 33 11 52 4 63 7 91 25
16 11 24 23 19 30 -5 8 -2 8 9 -1 10 -8 19 -9 22 -3 4 5 15 8 26 6 11 -2 20 0
20 6 0 5 5 9 11 9 5 0 7 -6 3 -12 -4 -7 2 -5 12 5 23 21 21 22 27 -9z m-144
-17 c-2 -1 -13 -9 -24 -17 -19 -14 -19 -14 -6 3 7 9 18 17 24 17 6 0 8 -1 6
-3z m505 -12 c3 -9 0 -15 -9 -15 -15 0 -16 -4 -19 -47 0 -12 -9 -31 -18 -42
-9 -11 -13 -23 -10 -27 4 -4 -2 -4 -12 0 -16 5 -17 4 -7 -8 10 -11 8 -17 -6
-25 -10 -6 -14 -11 -9 -11 10 0 -13 -30 -24 -30 -4 0 -7 18 -6 40 2 27 -2 40
-11 40 -7 0 -13 7 -13 15 0 9 -6 12 -17 8 -11 -4 -14 -3 -9 6 5 8 3 12 -5 10
-26 -3 -36 1 -36 15 0 8 6 12 15 8 10 -3 13 -1 8 7 -4 6 -4 10 1 9 4 -1 19 4
31 11 13 7 26 10 29 7 3 -3 15 0 27 7 22 13 28 14 64 16 13 0 20 6 17 11 -3 6
-2 10 3 10 6 0 12 -7 16 -15z m-260 -101 c3 -8 2 -12 -4 -9 -6 3 -10 -1 -10
-9 0 -9 -4 -16 -8 -16 -5 0 -7 -17 -5 -37 2 -21 4 -44 5 -50 1 -7 5 -13 10
-13 5 0 7 -4 4 -8 -2 -4 0 -14 6 -22 8 -12 9 -12 4 3 -7 21 1 22 19 3 8 -7 11
-17 7 -22 -4 -5 0 -3 9 4 9 6 20 8 24 4 5 -4 5 -1 1 6 -4 6 -2 12 4 12 6 0 8
4 5 10 -3 6 1 7 9 4 24 -9 19 -30 -11 -60 -16 -15 -19 -21 -8 -14 11 7 5 -1
-13 -19 -20 -20 -39 -31 -48 -27 -8 3 -13 2 -9 -3 3 -5 -1 -16 -9 -24 -8 -8
-12 -17 -9 -21 6 -6 -12 -10 -29 -7 -5 0 -8 -4 -8 -10 0 -5 -4 -7 -10 -4 -5 3
-10 -1 -10 -9 0 -9 -7 -16 -16 -16 -9 0 -12 -5 -8 -12 5 -8 2 -9 -9 -5 -10 3
-17 3 -17 -1 0 -4 -9 -13 -21 -20 -17 -11 -20 -11 -14 0 3 7 -1 4 -9 -6 -9
-11 -16 -16 -16 -10 0 5 -5 1 -11 -9 -6 -9 -15 -14 -21 -11 -7 5 -9 2 -6 -7 5
-12 -1 -14 -23 -11 -19 3 -29 0 -29 -9 0 -7 -3 -10 -6 -6 -10 10 -64 -14 -57
-26 4 -7 -1 -6 -10 1 -14 12 -16 11 -12 -10 4 -21 3 -21 -9 -6 -7 10 -16 15
-19 12 -3 -3 -4 2 -3 13 2 10 7 17 12 16 12 -2 34 17 34 30 0 6 -7 2 -15 -9
-8 -10 -15 -15 -15 -10 0 6 10 21 23 34 12 14 15 21 7 17 -13 -8 -13 -6 -2 8
8 9 11 20 8 25 -3 6 1 15 9 22 8 7 12 17 8 23 -4 6 0 8 10 4 15 -6 31 18 32
48 1 17 31 55 38 48 4 -3 7 1 7 11 0 9 4 15 9 12 8 -5 25 29 22 47 -1 4 2 6 7
6 19 -3 33 2 28 10 -3 5 4 11 15 14 12 3 18 10 15 15 -7 12 32 48 62 57 14 4
21 12 18 20 -3 10 2 12 19 9 17 -3 25 1 30 16 8 24 11 25 19 4z m36 12 c0 -3
-4 -8 -10 -11 -5 -3 -10 -1 -10 4 0 6 5 11 10 11 6 0 10 -2 10 -4z m-736 -698
c86 0 92 -2 102 -23 12 -25 2 -45 -24 -45 -8 0 -10 -5 -6 -12 5 -8 0 -7 -11 2
-13 11 -19 12 -22 3 -3 -7 -14 -9 -31 -4 -15 4 -55 6 -89 6 -34 -1 -60 2 -57
7 3 4 1 8 -5 8 -10 0 -8 31 4 50 3 5 13 6 22 3 12 -5 14 -3 8 7 -6 9 -4 11 5
5 6 -4 53 -7 104 -7z m-868 -54 c11 -11 23 -28 27 -37 4 -10 15 -20 24 -24 10
-4 23 -14 30 -22 7 -9 13 -12 13 -7 0 5 13 -5 29 -22 16 -16 32 -27 36 -24 3
4 4 0 0 -8 -6 -17 -95 -77 -107 -72 -5 1 -8 -5 -8 -14 0 -8 -4 -12 -10 -9 -5
3 -10 0 -10 -7 0 -19 -33 -45 -50 -40 -8 3 -11 -1 -7 -10 6 -16 -31 -55 -47
-50 -5 2 -3 -5 5 -14 8 -10 9 -15 3 -11 -14 8 -56 -27 -46 -38 4 -5 2 -5 -4
-2 -7 4 -14 16 -17 27 -3 13 -1 18 6 13 7 -3 3 4 -7 16 -16 17 -16 20 -4 16 9
-4 19 -1 24 6 4 7 3 10 -3 6 -6 -4 -14 0 -17 9 -4 11 -2 15 8 11 18 -7 15 15
-4 39 -9 11 -10 15 -2 10 14 -8 15 -5 6 18 -3 9 -11 13 -17 9 -6 -3 -7 -1 -3
6 4 6 12 9 17 6 5 -4 9 -2 9 4 0 5 -6 12 -12 14 -8 3 -5 6 6 6 16 1 16 3 -5
22 -13 11 -18 17 -10 13 11 -5 13 -3 8 10 -4 11 -3 15 4 11 6 -4 8 -14 5 -22
-3 -8 -1 -11 5 -8 5 4 7 16 3 27 -4 14 -2 18 5 14 14 -9 10 16 -4 26 -6 5 -5
8 3 8 7 0 10 5 7 10 -3 6 -1 10 5 10 6 0 8 5 5 10 -3 6 -1 10 5 10 6 0 8 5 5
10 -3 6 -1 10 5 10 6 0 8 5 5 10 -5 9 16 15 38 11 5 -1 6 3 2 9 -3 6 -12 7
-18 3 -8 -4 -7 -1 1 9 16 20 32 18 58 -8z m2424 -36 c0 -4 -14 -15 -31 -23
-17 -9 -28 -19 -25 -22 3 -4 -3 -13 -14 -20 -11 -8 -18 -19 -15 -24 5 -8 -7
-13 -26 -11 -4 1 -10 -10 -13 -24 -4 -15 -11 -22 -18 -18 -8 5 -9 1 -4 -12 4
-10 4 -15 0 -12 -9 10 -46 -11 -39 -22 3 -5 -4 -14 -15 -20 -11 -6 -20 -17
-20 -25 0 -7 -4 -17 -10 -20 -6 -4 -7 1 -3 12 4 13 3 15 -5 8 -6 -5 -12 -17
-14 -25 -5 -22 -22 -38 -35 -33 -8 3 -13 -3 -13 -14 0 -22 -36 -56 -50 -48 -6
4 -10 -1 -10 -10 0 -9 -5 -13 -11 -9 -7 4 -10 1 -7 -7 5 -14 -29 -52 -41 -45
-3 2 -12 -2 -19 -10 -7 -8 -10 -14 -7 -14 3 0 1 -9 -5 -20 -6 -11 -15 -18 -21
-15 -5 4 -9 0 -10 -7 0 -10 -2 -10 -6 1 -5 11 -7 11 -14 0 -5 -9 -10 1 -15 29
-5 30 -11 42 -20 38 -12 -5 -31 29 -26 47 1 5 -2 6 -8 2 -5 -3 -10 1 -10 9 0
9 -5 16 -11 16 -5 0 -7 4 -4 10 3 6 -1 7 -9 4 -11 -4 -16 0 -16 10 0 9 -4 16
-10 16 -5 0 -10 5 -10 11 0 17 -29 41 -41 33 -7 -4 -9 -3 -5 4 3 6 -4 18 -16
27 -20 13 -21 17 -8 25 11 8 8 9 -12 6 -22 -4 -28 0 -37 26 -13 36 -14 44 -4
35 3 -4 12 2 20 13 8 11 20 17 28 14 8 -4 15 -2 15 4 0 5 7 13 16 16 9 4 13 2
8 -5 -4 -8 -1 -8 14 0 26 14 35 14 27 0 -4 -6 2 -5 14 3 12 7 21 17 21 22 0 4
-8 2 -17 -5 -14 -11 -14 -9 1 9 15 17 22 19 28 10 4 -7 8 -8 8 -3 0 6 9 16 21
23 17 11 20 11 13 0 -6 -10 -4 -10 9 1 9 7 17 10 17 6 0 -4 8 -1 17 6 11 10
14 10 9 2 -4 -7 -3 -13 2 -13 6 0 13 7 16 16 3 8 10 12 16 9 5 -3 20 -8 32
-10 23 -4 23 -4 3 12 -13 10 -15 14 -4 10 9 -3 22 -1 30 3 8 5 19 4 28 -3 12
-10 13 -9 6 2 -6 11 -4 13 8 8 10 -3 17 -3 17 1 0 7 77 13 223 15 50 1 87 6
87 12 1 11 30 -25 30 -37z m-1989 -15 c13 -16 12 -17 -3 -4 -10 7 -18 15 -18
17 0 8 8 3 21 -13z m734 -123 c-3 -5 9 -8 29 -7 27 3 33 0 29 -12 -4 -15 -3
-15 9 0 16 18 54 11 52 -11 -1 -8 -2 -20 -3 -26 -3 -28 -101 -47 -101 -19 0 8
-4 15 -10 15 -5 0 -10 7 -10 16 0 14 -3 15 -17 3 -10 -7 -15 -9 -11 -5 4 5 0
14 -9 21 -14 11 -14 12 1 18 12 5 15 3 10 -6 -4 -6 2 -4 12 6 20 19 28 22 19
7z m-590 -10 c-6 12 -5 13 5 3 12 -11 11 -15 -5 -26 -12 -9 -15 -19 -10 -28 8
-12 6 -12 -8 0 -12 10 -17 10 -17 2 0 -18 -27 -42 -49 -44 -14 -1 -17 -5 -10
-13 7 -8 6 -15 -2 -20 -8 -5 -10 -3 -5 7 4 8 -2 2 -14 -13 -12 -16 -28 -28
-36 -28 -9 0 -12 -4 -9 -10 3 -5 2 -10 -4 -10 -6 0 -8 -7 -4 -15 3 -9 1 -15
-5 -13 -6 2 -18 -6 -27 -17 -9 -11 -14 -14 -10 -7 3 6 4 12 1 12 -3 0 -14 -17
-24 -37 -10 -21 -24 -37 -31 -35 -8 2 -11 -3 -8 -11 3 -8 -1 -14 -9 -14 -10 0
-12 7 -8 21 4 15 3 17 -4 7 -6 -8 -15 -10 -23 -5 -12 6 -11 5 0 -9 12 -15 12
-17 -3 -11 -9 3 -16 10 -16 14 0 8 -19 17 -45 22 -15 2 -35 25 -35 38 0 6 -4
8 -10 5 -5 -3 -10 -1 -10 6 0 9 -3 9 -14 0 -10 -9 -17 -6 -29 13 -15 22 -15
25 -1 30 9 3 20 4 24 1 5 -3 7 3 5 15 -2 11 -1 19 3 19 20 -3 32 2 27 11 -3 6
1 10 11 10 9 0 26 10 39 22 12 12 30 23 39 25 44 9 51 11 49 20 -1 5 4 10 12
10 8 0 12 -4 9 -8 -2 -4 1 -11 7 -15 8 -4 9 -3 5 4 -4 7 -2 12 3 12 6 0 10 6
9 13 -2 6 5 11 15 9 9 -2 17 2 17 7 0 6 7 8 15 5 8 -4 15 -1 15 6 0 6 5 8 11
4 6 -3 15 0 20 7 5 8 9 9 9 3 0 -12 49 -13 68 -1 7 5 12 3 12 -5 0 -10 2 -10
9 1 7 11 9 11 14 0 4 -9 6 -8 6 5 1 16 3 17 18 5 15 -12 16 -12 8 1z m275 -9
c0 9 3 10 8 4 4 -5 14 -11 22 -13 8 -2 17 -8 18 -13 2 -5 9 -6 15 -2 7 4 5 -2
-3 -12 -9 -11 -10 -16 -2 -11 7 4 12 2 12 -4 0 -6 5 -8 10 -5 6 3 17 -1 26 -9
8 -9 22 -16 30 -16 8 0 13 -3 10 -8 -2 -4 2 -16 10 -27 9 -12 14 -14 14 -5 0
9 5 7 15 -6 8 -10 15 -15 15 -11 0 15 30 -21 30 -37 0 -10 -6 -13 -17 -9 -10
3 -15 2 -11 -2 9 -9 -45 -45 -67 -45 -8 0 -14 -3 -12 -7 1 -5 -1 -8 -4 -8 -3
0 -13 -8 -23 -18 -10 -9 -22 -15 -27 -11 -5 3 -16 -2 -25 -10 -9 -9 -19 -14
-24 -11 -5 3 -12 0 -16 -6 -4 -8 -3 -9 4 -5 7 4 12 3 12 -3 0 -5 -13 -12 -30
-16 -16 -4 -30 -12 -30 -18 0 -7 -4 -6 -10 3 -7 12 -12 12 -22 2 -6 -6 -8 -12
-2 -12 5 0 -4 -9 -20 -19 -17 -11 -33 -18 -38 -15 -4 3 -8 1 -8 -4 0 -5 -6 -9
-12 -10 -35 -2 -64 -13 -78 -29 -18 -21 -80 -26 -80 -6 0 7 -5 13 -11 13 -5 0
-8 4 -5 8 3 5 -1 9 -9 9 -8 0 -15 -7 -15 -15 0 -11 -5 -9 -19 6 -10 12 -23 22
-28 22 -5 0 -10 7 -10 15 0 8 4 15 9 15 5 0 7 4 3 9 -3 5 9 24 27 43 17 18 26
25 19 16 -9 -12 -10 -18 -2 -18 6 0 13 11 17 25 3 14 15 30 25 36 12 6 17 15
12 22 -4 7 2 5 12 -3 11 -9 16 -10 11 -2 -8 13 9 34 37 45 9 3 22 18 27 32 5
14 16 25 24 25 8 0 18 5 22 12 5 7 3 8 -6 3 -9 -6 -11 -4 -6 4 5 7 14 10 22 7
8 -3 13 0 11 6 -1 6 8 17 20 23 13 7 20 14 18 17 -3 3 1 8 10 12 11 4 14 2 9
-6 -4 -7 -3 -8 4 -4 7 4 12 13 12 20 0 21 43 46 58 34 8 -7 12 -6 12 3z m630
-72 c0 8 15 -2 33 -22 17 -20 39 -38 47 -39 20 -4 51 -38 45 -49 -3 -4 4 -6
16 -4 18 4 19 2 7 -12 -8 -10 -8 -14 -1 -10 6 4 14 3 18 -3 4 -6 10 -8 15 -5
5 3 7 -4 5 -16 -3 -14 0 -19 9 -16 9 4 12 0 9 -13 -3 -13 0 -18 13 -17 11 1
18 -6 19 -20 1 -12 -2 -20 -6 -17 -4 2 -11 0 -14 -6 -4 -6 -1 -9 6 -8 7 2 14
-7 15 -19 1 -12 -3 -20 -8 -17 -5 3 -7 -6 -4 -19 3 -20 1 -25 -13 -22 -18 3
-22 -29 -6 -55 5 -9 4 -11 -3 -6 -7 4 -12 1 -12 -9 0 -10 5 -14 13 -10 6 4 3
-1 -7 -9 -11 -9 -15 -16 -10 -16 7 0 8 -18 5 -47 -3 -27 -6 -65 -6 -85 0 -21
-3 -38 -6 -38 -3 0 -5 -13 -4 -29 3 -44 -17 -64 -49 -51 -15 5 -24 14 -21 20
3 6 -1 7 -9 4 -10 -4 -16 -1 -16 9 0 8 -5 17 -11 19 -6 2 -13 24 -14 48 -5 56
-15 90 -26 90 -5 0 -9 5 -9 11 0 7 -8 18 -17 26 -11 9 -12 11 -3 7 13 -6 13
-5 -1 12 -8 10 -15 35 -15 55 1 28 -2 35 -13 31 -9 -3 -12 -1 -7 6 4 7 3 12
-3 12 -5 0 -13 9 -16 20 -4 11 -10 18 -14 15 -5 -2 -8 3 -8 13 0 67 -3 75 -20
61 -15 -13 -15 -12 -4 8 9 19 9 22 -3 17 -8 -3 -17 0 -22 7 -5 8 -3 10 7 5 8
-4 7 -2 -2 6 -28 23 -29 75 -2 104 13 14 28 22 33 19 6 -3 10 1 10 9 0 9 5 16
10 16 6 0 10 7 10 15 0 8 9 15 20 15 11 0 20 6 20 13 0 8 4 7 10 -3 8 -12 10
-12 10 -1z m-1615 -27 c-3 -3 -11 0 -18 7 -9 10 -8 11 6 5 10 -3 15 -9 12 -12z
m1666 1 c13 -16 12 -17 -3 -4 -17 13 -22 21 -14 21 2 0 10 -8 17 -17z m-901
-69 c0 -8 -19 -13 -24 -6 -3 5 1 9 9 9 8 0 15 -2 15 -3z m591 -143 c1 -9 1
-19 0 -23 0 -5 4 -8 10 -8 8 0 8 -4 0 -14 -9 -10 -7 -17 6 -27 16 -12 17 -12
8 1 -5 9 0 4 12 -10 21 -22 28 -41 24 -62 0 -5 3 -8 8 -8 5 0 8 -13 7 -29 -2
-23 2 -28 15 -26 13 3 16 -1 12 -12 -5 -12 -3 -14 8 -8 11 7 11 5 -1 -10 -8
-10 -10 -16 -4 -12 7 4 18 -1 25 -10 12 -14 12 -16 0 -8 -11 6 -13 4 -6 -11 5
-10 9 -32 10 -48 1 -17 7 -32 14 -34 6 -2 8 -9 4 -15 -4 -7 2 -5 12 3 10 8 16
10 12 3 -4 -6 -1 -14 5 -16 8 -3 6 -6 -4 -6 -10 -1 -18 -5 -18 -11 0 -6 -9 -6
-22 -1 -13 4 -29 6 -35 4 -7 -3 -16 2 -19 11 -3 9 -10 13 -15 10 -5 -3 -9 0
-9 7 0 6 -8 9 -20 6 -10 -3 -25 2 -31 9 -7 9 -23 13 -40 10 -16 -2 -31 -1 -34
3 -2 4 -14 7 -27 6 -13 -1 -35 4 -49 11 -15 7 -30 10 -35 6 -5 -4 -2 1 5 11
12 15 12 17 -4 11 -11 -4 -16 -3 -12 2 5 9 -13 11 -105 17 -16 1 -28 5 -28 9
0 5 -9 8 -20 8 -11 0 -20 4 -20 8 0 8 -6 10 -49 14 -11 1 -17 6 -15 10 3 4 -3
8 -13 9 -16 0 -16 1 2 9 14 6 15 9 5 10 -9 1 -5 5 9 11 14 5 30 8 37 5 7 -3
16 4 19 15 4 10 11 19 16 19 6 0 7 -6 4 -12 -4 -7 1 -4 9 6 9 11 16 16 16 12
0 -4 14 2 30 14 17 12 29 18 28 13 -2 -4 1 -8 7 -8 5 0 8 6 7 14 -2 7 1 10 7
6 6 -3 11 1 11 10 0 9 5 13 10 10 6 -3 10 -1 10 5 0 6 4 9 9 6 14 -9 42 5 34
17 -4 6 0 8 10 4 11 -4 17 -1 17 8 0 8 7 15 15 15 8 0 15 5 15 11 0 6 6 9 13
6 8 -3 26 5 41 18 29 25 55 24 57 -4z m-1169 -26 c3 3 11 -2 19 -12 12 -15 12
-16 -1 -9 -8 4 -4 -2 9 -13 13 -12 32 -21 43 -21 11 0 33 -12 49 -27 l29 -28
-23 -17 c-18 -14 -19 -20 -8 -27 11 -7 9 -10 -8 -16 -13 -4 -20 -9 -17 -12 10
-10 -15 -44 -26 -37 -8 5 -9 1 -5 -10 5 -13 3 -17 -7 -13 -10 4 -13 1 -9 -9 7
-18 -27 -85 -39 -78 -4 3 -8 0 -8 -7 0 -7 -7 -4 -16 7 -8 10 -13 13 -9 7 3 -7
1 -13 -5 -13 -7 0 -9 7 -6 17 4 9 1 20 -6 25 -11 6 -11 8 0 8 10 0 10 5 2 20
-6 11 -7 20 -2 20 12 0 10 43 -3 52 -6 5 -6 8 2 8 11 0 10 36 -2 48 -2 3 0 11
6 18 7 8 7 14 -1 19 -7 4 -7 12 0 24 5 10 6 22 2 25 -19 20 3 72 24 55 6 -5
13 -7 16 -4z m593 -95 c-3 -5 -12 -10 -18 -10 -7 0 -6 4 3 10 19 12 23 12 15
0z m1210 -59 c-3 -5 -1 -12 4 -16 6 -3 7 -13 4 -22 -5 -12 -3 -14 7 -8 10 6
12 3 8 -13 -4 -15 -2 -22 9 -22 8 0 11 -4 8 -10 -3 -5 0 -10 8 -10 9 0 14 -9
12 -22 -1 -13 5 -34 13 -47 8 -13 10 -21 5 -18 -5 4 -10 0 -10 -8 0 -8 4 -12
9 -9 4 3 8 0 8 -6 0 -6 5 -8 10 -5 6 3 10 -1 10 -9 0 -9 5 -16 10 -16 6 0 10
-11 10 -25 0 -14 5 -25 12 -25 6 0 8 -3 5 -7 -4 -3 -2 -12 5 -20 8 -11 7 -12
-6 -7 -9 3 -16 2 -16 -3 0 -6 -14 -10 -32 -11 -25 -1 -29 2 -18 9 12 9 11 10
-6 6 -15 -3 -21 0 -20 11 0 8 -6 17 -14 19 -10 3 -11 2 -3 -4 8 -6 9 -14 3
-23 -6 -10 -10 -11 -10 -3 0 19 -37 36 -46 21 -4 -6 -3 -8 4 -4 6 3 13 2 16
-3 5 -8 -15 -8 -34 -1 -3 1 -8 2 -12 1 -5 0 -8 5 -8 13 0 8 -5 16 -11 18 -9 3
-9 9 0 25 6 12 11 31 11 42 0 12 4 21 9 21 5 0 12 7 15 16 6 15 4 15 -11 3
-16 -12 -17 -12 -7 1 6 8 10 25 9 37 -1 19 1 21 13 10 13 -10 14 -9 2 12 -11
22 -11 23 6 17 16 -5 17 -4 4 7 -8 6 -16 18 -18 25 -2 13 25 72 34 72 3 0 3
-4 -1 -9z m-1473 -52 c-12 -12 -22 -14 -36 -7 -12 7 -16 7 -12 0 7 -11 -32
-28 -41 -18 -4 3 -1 6 6 6 8 0 11 8 8 20 -3 11 -1 18 4 15 5 -4 18 3 30 14 19
18 22 18 40 3 17 -15 17 -17 1 -33z m-532 1 c-8 -5 -10 -10 -4 -10 5 0 11 -18
11 -41 0 -28 -3 -39 -12 -36 -8 4 -10 -3 -7 -19 2 -13 9 -24 16 -24 6 0 4 -5
-4 -10 -13 -9 -13 -11 0 -20 13 -8 12 -10 -2 -10 -10 0 -18 -7 -18 -15 0 -8
-4 -15 -10 -15 -5 0 -10 -8 -10 -17 0 -15 -2 -15 -9 -4 -5 8 -16 11 -25 8 -9
-4 -16 -2 -16 3 0 5 -8 7 -17 4 -15 -5 -15 -4 -3 4 8 6 18 8 22 6 4 -3 4 6 -2
20 -6 17 -6 26 0 26 6 0 9 3 8 8 -4 14 14 52 24 52 6 0 8 3 5 7 -4 3 3 14 15
22 13 9 24 25 25 36 2 18 1 18 -9 -2 -6 -13 -15 -23 -20 -23 -5 0 0 14 12 30
12 17 27 30 33 30 7 0 6 -4 -3 -10z m765 -91 c-3 -5 1 -6 10 -3 8 4 21 1 29
-5 7 -6 16 -8 19 -4 4 3 7 1 7 -5 0 -7 5 -12 11 -12 5 0 7 4 4 10 -3 5 0 7 9
4 8 -3 13 -14 11 -26 -3 -16 -1 -17 9 -8 11 8 15 8 18 -1 2 -6 15 -13 28 -14
82 -11 102 -16 125 -31 14 -9 25 -13 25 -9 0 3 13 -3 29 -15 16 -11 32 -16 35
-12 3 5 21 4 40 -2 19 -6 33 -13 31 -17 -3 -3 7 -5 20 -3 18 1 25 -3 25 -15 0
-27 12 -33 31 -15 17 16 19 15 25 0 5 -14 9 -15 15 -4 6 8 9 9 9 2 0 -8 16
-11 41 -10 22 1 42 -1 45 -6 3 -4 12 -8 21 -8 20 0 64 -35 55 -45 -4 -5 -1 -5
6 -1 7 4 9 12 6 18 -5 7 -2 8 6 3 7 -4 16 -2 22 6 8 11 9 10 4 -3 -3 -10 -1
-20 4 -23 6 -4 10 0 10 7 0 9 2 10 8 1 4 -6 14 -13 22 -15 20 -4 42 -26 36
-36 -3 -5 1 -20 9 -35 9 -18 10 -27 2 -30 -7 -2 -7 -9 -2 -18 5 -8 8 -24 6
-36 -1 -14 3 -23 11 -24 7 0 4 -4 -7 -9 -18 -8 -18 -9 -2 -9 15 -1 16 -4 6
-23 -11 -20 -10 -21 2 -11 13 10 15 8 15 -15 -1 -17 4 -26 12 -24 8 1 11 -2 7
-8 -5 -8 -11 -8 -20 0 -10 8 -15 8 -21 -2 -4 -7 -4 -10 1 -6 12 12 38 -21 32
-42 -3 -11 0 -23 5 -27 7 -4 8 -1 3 7 -5 8 -4 11 3 6 6 -3 9 -16 7 -28 -3 -12
0 -27 6 -35 9 -9 8 -13 0 -13 -7 0 -9 -5 -5 -12 4 -7 8 -39 9 -73 0 -33 5 -66
9 -74 6 -9 5 -12 -1 -8 -5 4 -10 -6 -10 -23 0 -17 5 -27 10 -23 6 4 7 1 2 -8
-14 -22 -15 -60 -2 -52 7 4 6 0 -2 -10 -11 -14 -11 -17 0 -17 9 0 10 -3 4 -8
-14 -9 -14 -85 -1 -94 7 -5 7 -8 1 -8 -6 0 -10 -32 -11 -73 -1 -103 -6 -150
-17 -164 -6 -9 -5 -13 3 -13 10 0 10 -4 -1 -16 -10 -13 -10 -17 2 -25 10 -6
11 -9 1 -9 -7 0 -11 -4 -7 -9 3 -5 0 -13 -6 -17 -7 -4 -9 -3 -5 4 3 6 3 13 -2
16 -4 2 -9 -4 -9 -15 -1 -10 2 -19 7 -19 5 0 7 -7 4 -15 -4 -8 -13 -15 -20
-15 -12 0 -12 -3 -2 -14 7 -8 17 -11 22 -8 5 3 6 0 2 -7 -5 -8 -12 -9 -20 -2
-8 7 -12 5 -12 -9 0 -10 3 -17 6 -15 3 2 6 -5 6 -15 0 -15 -3 -17 -15 -7 -12
10 -13 9 -7 -1 12 -20 14 -62 3 -62 -5 0 -3 -8 4 -17 12 -14 12 -16 0 -9 -9 6
-12 5 -9 -5 3 -8 1 -22 -4 -31 -6 -13 -5 -18 4 -18 10 0 10 -2 0 -9 -7 -4 -14
-14 -15 -22 -2 -8 -6 -20 -10 -26 -5 -7 -5 -19 -1 -25 5 -10 4 -10 -6 -1 -10
9 -10 16 -2 26 9 10 8 14 -2 14 -9 0 -13 -11 -11 -34 1 -18 -2 -33 -7 -33 -5
0 -6 -4 -3 -10 3 -5 1 -10 -5 -10 -6 0 -9 -4 -6 -9 3 -5 -2 -15 -11 -22 -12
-10 -14 -10 -9 -1 4 7 1 12 -8 12 -9 0 -16 -4 -16 -9 0 -5 -11 -8 -25 -6 -14
1 -25 -2 -25 -7 0 -5 -4 -7 -9 -4 -5 4 -21 2 -36 -4 -15 -6 -24 -6 -20 -1 10
17 -59 -8 -72 -26 -7 -9 -13 -13 -13 -8 0 4 -8 2 -17 -7 -10 -8 -28 -13 -40
-12 -13 0 -23 -2 -23 -7 0 -5 -7 -6 -15 -2 -9 3 -26 -3 -38 -13 -12 -11 -16
-12 -10 -4 10 13 9 16 -6 16 -13 0 -17 -7 -15 -26 3 -24 2 -24 -12 -6 -13 18
-14 18 -14 2 0 -9 -4 -14 -10 -11 -5 3 -10 2 -10 -4 0 -5 -11 -8 -25 -7 -13 2
-22 0 -20 -4 3 -5 -2 -10 -9 -13 -8 -3 -17 -1 -20 6 -3 8 -12 3 -26 -13 -12
-14 -19 -19 -15 -12 3 6 1 12 -4 12 -6 0 -11 -9 -11 -19 0 -15 -6 -19 -25 -16
-14 1 -28 -2 -31 -7 -3 -5 -13 -1 -21 9 -8 10 -12 12 -8 6 3 -7 1 -13 -4 -13
-9 0 -15 18 -13 40 0 3 -8 7 -19 7 -12 1 -17 -2 -12 -10 3 -7 -3 -4 -14 5 -11
10 -25 18 -31 18 -7 0 -12 5 -12 12 0 6 -3 8 -7 5 -3 -4 -13 -1 -21 6 -13 10
-14 9 -7 -2 6 -10 4 -12 -4 -7 -7 5 -10 14 -7 22 3 7 0 16 -6 20 -7 4 -8 3 -4
-4 4 -7 1 -12 -9 -12 -8 0 -18 6 -21 13 -2 7 -17 12 -31 11 -15 0 -36 7 -47
17 -16 15 -22 16 -34 6 -13 -10 -14 -8 -8 11 6 17 4 21 -8 16 -10 -4 -16 -1
-16 7 0 11 -3 11 -10 -1 -5 -8 -10 -10 -10 -4 0 7 -6 11 -12 11 -32 -3 -88 16
-88 29 0 12 -4 13 -22 3 -22 -12 -22 -11 -8 6 14 17 14 18 -9 6 -13 -7 -21 -8
-17 -2 4 5 -3 15 -14 21 -11 6 -20 8 -20 5 0 -4 -7 0 -15 9 -8 8 -15 20 -15
26 0 6 -4 9 -8 6 -5 -3 -8 5 -7 17 1 12 0 26 -4 32 -3 5 -4 22 -2 37 1 18 -2
28 -11 28 -8 0 -9 3 -3 8 17 12 17 35 0 28 -9 -3 -14 -2 -11 3 3 5 -1 11 -9
15 -8 3 -12 12 -9 21 3 8 2 15 -3 15 -6 0 -10 14 -11 32 0 17 -7 35 -14 39 -7
5 -8 9 -2 9 14 0 14 33 0 43 -7 4 -8 10 -1 15 16 11 15 44 -1 38 -7 -3 -16 0
-20 6 -4 7 -3 8 4 4 7 -4 12 -3 12 3 0 5 3 18 6 28 6 16 5 16 -10 -2 -10 -11
-15 -14 -11 -7 3 6 0 12 -7 12 -9 0 -9 3 2 10 11 7 11 10 2 10 -7 0 -11 4 -8
9 3 5 -1 12 -10 15 -13 5 -14 9 -4 21 7 8 8 15 3 15 -5 0 -9 10 -8 23 1 12 -2
27 -7 34 -6 7 -5 14 2 18 8 5 8 11 -1 21 -9 11 -8 14 2 14 11 0 11 2 -1 10
-13 8 -13 10 -1 10 11 0 10 4 -5 16 -10 8 -14 13 -7 10 6 -4 14 -2 18 4 3 5 1
10 -6 10 -8 0 -7 5 2 17 10 11 10 14 2 9 -7 -4 -13 -3 -13 1 0 5 6 15 13 22 7
9 7 11 1 8 -19 -11 -24 19 -7 44 9 12 12 19 6 16 -18 -11 -23 19 -7 41 10 15
11 23 3 28 -8 5 -9 3 -4 -6 6 -9 4 -11 -5 -5 -10 6 -9 11 5 22 12 8 14 13 6
13 -11 0 -11 3 0 17 10 11 10 14 1 9 -8 -5 -11 -1 -9 13 2 11 6 23 10 27 3 4
2 14 -3 24 -5 10 -7 20 -4 22 11 12 12 48 1 48 -8 0 -8 3 -2 8 6 4 11 15 12
25 0 9 1 31 2 47 0 18 11 41 26 55 24 25 21 36 -4 13 -11 -11 -11 -9 -2 9 6
12 16 23 22 25 6 2 13 16 14 31 2 19 -1 27 -13 28 -14 0 -15 1 -2 7 8 4 16 18
16 32 4 55 9 80 17 80 4 0 5 5 2 10 -3 6 0 10 8 10 8 0 20 7 28 16 10 13 10
17 -2 25 -13 8 -6 13 13 10 4 0 3 10 -2 24 -6 17 -6 25 1 25 6 0 8 4 4 9 -3 5
0 13 6 16 5 4 8 14 4 22 -4 13 -3 14 10 3 13 -11 14 -10 8 6 -6 16 -5 17 9 6
14 -11 16 -10 11 8 -4 16 -2 19 11 14 9 -4 16 -1 16 6 0 7 7 10 15 7 8 -4 17
-2 20 3 3 5 13 6 22 3 13 -5 15 -2 10 11 -4 10 -3 15 4 11 5 -4 15 -2 22 3 15
12 77 27 96 23 8 -1 12 3 8 12 -3 8 0 14 6 14 7 0 23 1 37 2 20 1 22 3 10 11
-12 8 -11 10 8 10 12 0 22 6 23 13 0 9 2 9 6 -1 4 -10 8 -10 19 -1 8 6 27 9
44 7 21 -3 30 0 30 9 0 8 5 11 10 8 6 -4 8 -11 5 -16z m508 -174 c-3 -9 -8
-14 -10 -11 -3 3 -2 9 2 15 9 16 15 13 8 -4z m-1426 -112 c-4 -3 -2 -12 5 -20
9 -11 8 -13 -3 -11 -8 2 -13 -2 -12 -9 2 -7 -4 -10 -13 -6 -13 5 -13 7 -2 14
7 5 14 13 14 19 2 17 4 20 11 20 3 0 3 -3 0 -7z m2223 -43 c13 7 21 7 25 -1 4
-6 13 -8 21 -5 8 3 17 -1 21 -9 5 -14 7 -14 17 1 11 15 14 15 29 -1 10 -9 15
-22 11 -28 -3 -7 1 -4 8 5 13 15 15 15 27 -4 7 -11 8 -17 2 -13 -6 3 -11 1
-11 -4 0 -10 12 -14 30 -13 3 0 5 -12 4 -26 0 -15 4 -30 10 -34 7 -5 6 -8 -3
-8 -10 0 -11 -3 -2 -14 8 -9 8 -16 2 -20 -6 -4 -6 -18 -1 -36 5 -17 5 -32 0
-35 -5 -3 -5 -17 0 -31 6 -14 7 -31 3 -37 -14 -22 -13 -39 2 -27 11 9 12 7 8
-9 -3 -12 -9 -21 -14 -21 -16 0 -24 5 -21 12 1 5 -4 8 -10 8 -9 0 -8 4 2 10
13 9 13 10 0 10 -8 0 -21 15 -28 33 -7 17 -18 40 -24 51 -7 14 -6 21 4 27 10
7 9 9 -4 9 -10 0 -18 5 -18 10 0 6 -7 10 -15 10 -13 0 -21 25 -16 53 0 4 -7 7
-16 8 -15 0 -15 2 2 9 19 8 19 9 -2 9 -13 1 -23 7 -23 15 0 8 -8 21 -17 28
-10 7 -19 20 -19 28 -1 8 -4 22 -6 30 -3 8 -3 12 -1 8 3 -5 13 -3 23 2z
m-2259 -29 c-6 -10 -8 -21 -6 -25 3 -3 0 -2 -5 2 -12 10 -3 42 11 42 6 0 6 -8
0 -19z m193 -43 c8 -6 8 -8 0 -8 -17 0 -25 -28 -12 -36 7 -5 8 -2 3 6 -6 9 -4
11 5 5 10 -6 10 -10 -3 -19 -11 -9 -12 -17 -6 -29 6 -10 6 -17 1 -17 -5 0 -7
-11 -4 -25 2 -14 9 -22 16 -19 6 3 4 0 -5 -8 -11 -9 -13 -21 -8 -40 5 -19 3
-28 -4 -28 -7 0 -6 -4 3 -10 8 -5 11 -10 5 -10 -5 0 -10 -18 -10 -40 0 -22 4
-40 8 -40 4 0 3 -9 -3 -20 -8 -15 -8 -20 2 -20 8 0 9 -3 3 -8 -6 -4 -10 -69
-10 -157 0 -82 -4 -156 -9 -162 -4 -7 -6 -19 -3 -27 4 -10 1 -13 -9 -9 -9 3
-14 0 -12 -8 2 -8 -3 -13 -10 -11 -8 1 -11 -2 -7 -8 4 -7 13 -7 27 1 16 9 19
8 12 -3 -5 -7 -9 -24 -9 -38 -1 -14 -6 -25 -12 -25 -6 0 -15 -3 -19 -7 -4 -5
-2 -8 4 -8 12 0 11 -34 -1 -46 -11 -11 -8 -26 3 -19 5 3 3 -7 -5 -22 -8 -15
-11 -32 -6 -37 14 -18 22 -48 11 -41 -10 6 -14 -7 -11 -32 1 -7 -3 -13 -9 -13
-5 0 -9 6 -7 13 1 6 -3 11 -10 10 -7 -2 -10 3 -7 11 3 8 0 17 -5 21 -6 3 -9
11 -6 16 4 5 2 9 -3 9 -5 0 -15 15 -22 33 -6 17 -16 41 -22 52 -8 14 -8 20 1
23 13 4 -11 32 -29 32 -6 0 -9 4 -6 9 4 5 1 11 -5 13 -7 2 -12 17 -13 33 -1
21 -6 29 -16 27 -13 -2 -12 0 1 10 16 13 15 43 -2 33 -5 -4 -6 2 -2 11 5 13 2
16 -9 12 -8 -4 -15 -1 -15 7 0 7 7 11 16 8 9 -2 5 3 -9 11 -16 10 -19 15 -10
16 12 0 12 2 2 9 -14 9 -25 121 -12 121 4 0 11 7 14 16 3 8 2 13 -2 10 -5 -3
-9 1 -9 9 0 8 5 13 11 12 6 -1 10 4 8 11 -1 6 5 12 13 12 8 0 15 5 15 11 0 5
-4 8 -8 5 -5 -3 -9 1 -9 9 0 8 4 12 8 9 4 -2 10 0 14 6 3 5 1 10 -5 10 -6 0
-8 5 -4 12 4 7 9 26 11 42 2 17 8 33 14 37 6 3 11 10 12 15 1 5 7 8 14 8 6 -1
9 5 6 12 -3 8 1 14 8 14 11 0 11 3 -1 10 -11 7 -11 10 -2 10 7 0 12 6 11 13
-4 24 32 89 46 83 9 -3 12 1 10 14 -4 22 35 99 58 112 9 5 18 17 18 26 1 13 2
12 6 -3 3 -11 10 -23 17 -27z m1943 -87 c-9 -12 -9 -13 1 -7 7 4 12 1 12 -8 0
-10 6 -13 17 -9 11 4 14 3 9 -5 -4 -7 -1 -15 7 -18 8 -3 13 -16 11 -30 -2 -19
1 -24 12 -20 11 4 13 2 5 -11 -7 -13 -4 -22 11 -35 12 -10 24 -18 28 -18 4 0
7 -6 7 -12 4 -53 8 -65 22 -60 9 3 12 1 7 -6 -4 -7 -2 -12 4 -12 6 0 8 -4 5
-10 -3 -5 -2 -10 4 -10 6 0 17 -13 26 -30 10 -19 11 -30 5 -30 -7 0 -8 -5 -3
-12 4 -7 8 -17 8 -23 0 -5 10 -14 23 -20 12 -5 22 -18 22 -27 0 -10 5 -18 12
-18 9 0 9 -3 0 -12 -9 -9 -7 -15 6 -25 9 -8 11 -11 4 -8 -9 5 -13 1 -11 -11 2
-11 0 -25 -4 -31 -5 -7 -4 -13 1 -13 6 0 6 -13 -1 -35 -6 -19 -15 -35 -20 -35
-5 0 -7 -6 -4 -14 4 -10 0 -14 -14 -11 -16 3 -18 1 -9 -16 6 -10 7 -19 3 -18
-20 3 -27 -2 -13 -11 10 -6 11 -10 3 -10 -7 0 -13 -9 -13 -20 0 -11 -5 -20
-11 -20 -6 0 -9 -7 -5 -15 5 -13 2 -14 -15 -4 -13 6 -19 7 -15 1 3 -6 3 -12
-1 -15 -5 -2 -1 -2 7 0 11 2 11 0 -2 -10 -10 -8 -15 -16 -12 -19 7 -8 -17 -58
-28 -58 -5 0 -6 -5 -2 -12 5 -8 2 -9 -9 -5 -9 3 -19 2 -22 -3 -4 -6 0 -10 7
-10 10 0 9 -3 -2 -10 -8 -5 -11 -12 -8 -16 4 -3 0 -13 -8 -21 -8 -9 -13 -22
-10 -30 3 -8 1 -11 -4 -8 -6 3 -10 1 -10 -5 0 -7 -7 -10 -14 -7 -10 4 -13 1
-9 -9 3 -7 0 -14 -5 -14 -6 0 -9 -9 -7 -19 2 -11 -3 -25 -11 -31 -7 -7 -11
-16 -8 -21 3 -5 0 -9 -5 -9 -6 0 -11 -6 -11 -14 0 -8 -5 -18 -12 -22 -7 -4 -8
-3 -4 4 4 8 2 10 -7 6 -11 -4 -16 4 -19 30 -2 20 0 36 4 36 5 0 4 9 -2 20 -8
14 -8 20 0 20 6 0 8 5 5 10 -4 6 -7 92 -7 193 0 111 -4 187 -10 195 -8 9 -7
11 4 7 13 -5 14 0 8 34 -4 23 -4 41 1 41 4 0 4 13 -1 30 -5 18 -5 32 1 36 5 3
6 12 1 21 -5 8 -6 31 -3 52 3 20 6 64 6 98 0 35 3 63 7 63 8 0 5 21 -6 39 -7
10 -6 12 4 6 10 -6 12 -4 7 8 -3 10 -2 17 4 17 6 0 5 8 -2 21 -7 13 -7 19 -1
15 6 -3 13 -2 17 4 3 5 1 10 -4 10 -6 0 -11 4 -11 10 0 5 8 7 18 4 14 -5 14
-4 3 4 -20 14 -24 45 -5 38 18 -7 18 -1 -2 19 -12 11 -13 19 -5 29 6 7 7 17 3
21 -4 5 -2 5 5 1 6 -3 15 -1 18 4 5 7 12 5 20 -7 10 -14 11 -21 2 -32z m-1729
-3 c-2 -6 -10 -13 -16 -14 -7 -1 -8 0 -2 3 5 2 8 9 4 14 -3 5 0 9 6 9 7 0 10
-5 8 -12z m2202 2 c0 -5 -5 -10 -11 -10 -5 0 -7 5 -4 10 3 6 8 10 11 10 2 0 4
-4 4 -10z m-2815 -48 c-3 -3 -11 0 -18 7 -9 10 -8 11 6 5 10 -3 15 -9 12 -12z
m2565 -322 c0 -5 -2 -10 -4 -10 -3 0 -8 5 -11 10 -3 6 -1 10 4 10 6 0 11 -4
11 -10z m-2077 -704 c3 3 3 -3 0 -15 -3 -12 -1 -21 6 -21 6 0 11 -13 11 -29 0
-17 5 -33 10 -36 8 -5 7 -11 -1 -21 -7 -8 -7 -14 -1 -14 5 0 12 -7 15 -14 4
-10 1 -13 -9 -9 -7 3 -14 1 -14 -5 0 -10 -47 -8 -58 3 -7 6 -6 64 1 96 1 10 9
25 17 35 8 10 10 15 3 11 -8 -5 -11 -1 -10 12 1 14 5 17 13 11 6 -6 13 -7 17
-4z m-250 -41 c-3 -9 -8 -14 -10 -11 -3 3 -2 9 2 15 9 16 15 13 8 -4z m33 -13
c-3 -3 -1 -11 5 -18 9 -11 7 -15 -6 -20 -10 -4 -21 -1 -25 7 -11 16 7 52 21
43 6 -3 8 -9 5 -12z m24 -57 c11 -13 10 -14 -5 -9 -14 6 -16 4 -10 -6 5 -8 4
-11 -3 -6 -5 3 -12 3 -15 -1 -2 -5 -2 -2 -1 5 2 6 -2 12 -9 13 -7 0 -3 4 8 9
11 5 21 9 21 9 1 1 7 -6 14 -14z m2130 -6 c0 -4 -4 -10 -10 -14 -5 -3 -7 -12
-3 -20 4 -11 1 -13 -13 -8 -13 5 -15 3 -9 -8 5 -8 4 -11 0 -6 -13 12 -18 60
-5 52 5 -3 10 -2 10 3 0 5 7 9 15 9 8 0 15 -4 15 -8z m-2255 -189 c-3 -5 2
-10 12 -10 15 0 16 -2 3 -10 -13 -8 -13 -10 2 -10 16 0 19 -15 5 -37 -5 -7 -1
-9 13 -6 15 4 20 0 20 -15 0 -12 6 -25 13 -29 6 -4 12 -15 12 -23 0 -8 5 -14
11 -13 7 1 9 -8 6 -24 -3 -18 -1 -24 7 -19 6 4 8 12 5 18 -4 7 -2 8 5 4 6 -4
9 -12 5 -17 -3 -6 4 -19 16 -29 12 -10 19 -23 16 -29 -4 -5 -1 -13 5 -17 8 -5
10 -2 4 7 -4 8 4 2 17 -13 14 -15 29 -24 33 -20 5 4 5 2 1 -5 -3 -6 -2 -14 3
-18 6 -3 7 -13 4 -23 -6 -15 -5 -16 12 -2 11 9 16 10 11 3 -4 -8 -1 -13 8 -13
20 0 38 -64 19 -68 -7 -2 -13 -7 -13 -12 0 -4 -12 -7 -26 -5 -19 2 -24 -1 -19
-13 4 -12 3 -12 -9 -3 -12 10 -16 8 -21 -8 -3 -11 -9 -20 -13 -20 -14 2 -52
-14 -52 -22 0 -4 -10 -2 -22 4 -28 15 -78 64 -78 77 0 6 -5 10 -11 10 -5 0 -7
5 -4 10 3 6 -1 10 -10 10 -9 0 -13 5 -10 10 3 6 -1 10 -9 10 -9 0 -16 9 -16
20 0 11 -5 20 -10 20 -6 0 -8 11 -4 26 4 16 3 25 -2 21 -6 -3 -11 3 -11 14 -1
11 1 18 5 15 4 -2 8 9 9 25 1 17 -2 27 -7 24 -6 -3 -7 1 -4 9 3 9 11 16 17 16
8 0 8 3 0 11 -7 7 -8 21 -3 40 5 16 7 29 4 29 -3 0 1 10 8 23 7 12 11 25 10
30 -1 4 3 7 10 7 6 0 8 3 5 6 -6 7 10 44 19 44 3 0 2 -4 -1 -10z m318 -23 c-4
-6 2 -8 15 -5 12 4 25 2 28 -4 4 -6 10 -5 15 3 5 8 9 9 9 4 0 -6 9 -11 20 -12
21 -2 51 -26 50 -40 -1 -4 2 -17 6 -28 3 -11 6 -23 5 -27 -2 -20 21 -59 32
-55 8 3 14 -5 15 -22 1 -14 10 -32 19 -38 9 -7 12 -13 7 -13 -6 0 -11 -7 -11
-15 0 -8 6 -15 14 -15 7 0 13 -7 13 -16 0 -10 6 -14 14 -11 10 4 14 0 11 -14
-2 -10 1 -19 7 -19 6 0 8 -3 5 -7 -4 -3 0 -14 8 -23 9 -10 15 -21 13 -26 -2
-5 0 -9 3 -9 15 0 39 -29 37 -44 -2 -9 3 -15 11 -13 12 3 12 0 2 -12 -8 -9 -8
-16 -2 -20 6 -4 8 -13 5 -21 -4 -8 -10 -13 -14 -10 -5 3 -10 0 -12 -6 -4 -12
-48 23 -48 39 0 6 -9 16 -20 22 -11 6 -18 15 -15 20 3 6 -1 7 -9 4 -11 -4 -21
5 -32 29 -11 22 -22 33 -30 30 -9 -3 -14 2 -14 12 0 9 -4 13 -10 10 -5 -3 -10
3 -10 14 0 12 -5 21 -11 21 -5 0 -7 5 -3 12 4 7 3 8 -5 4 -16 -10 -61 42 -54
63 4 11 0 10 -11 -4 -12 -15 -15 -16 -10 -3 3 10 -2 20 -15 27 -11 6 -23 20
-26 31 -3 11 -13 20 -21 20 -8 0 -13 4 -10 9 3 5 -1 11 -8 14 -8 3 -20 16 -26
28 -8 15 -9 19 -1 15 16 -11 13 3 -5 22 -15 14 -15 17 0 28 10 7 13 15 8 18
-12 7 -4 46 10 46 5 0 6 -6 3 -12 -3 -7 0 -6 6 3 13 17 53 14 42 -4z m1273 11
c4 -7 3 -8 -4 -4 -7 4 -12 2 -12 -4 0 -6 -5 -8 -11 -4 -8 4 -7 9 2 15 18 11
17 11 25 -3z m586 -27 c-3 -9 -1 -12 6 -7 8 5 10 2 6 -8 -3 -9 -11 -13 -16
-10 -6 4 -5 -3 1 -15 12 -22 5 -27 -18 -12 -17 11 -23 39 -10 47 5 3 7 9 5 13
-3 3 4 7 14 7 11 0 16 -5 12 -15z m-228 -13 c-5 -8 -2 -9 9 -5 11 4 17 1 17
-9 0 -8 5 -12 10 -9 6 3 10 1 10 -4 0 -6 -6 -11 -12 -11 -9 0 -9 -3 1 -9 13
-8 13 -12 0 -27 -8 -10 -9 -15 -3 -11 7 4 17 -5 24 -23 7 -17 17 -30 22 -30 6
0 6 -6 -1 -14 -8 -10 -9 -16 -1 -21 16 -10 12 -19 -30 -65 -22 -24 -40 -40
-40 -36 0 4 -14 -9 -31 -29 -19 -21 -38 -34 -46 -31 -9 4 -13 0 -11 -12 2 -9
-3 -16 -10 -14 -7 1 -15 -5 -18 -13 -4 -8 -12 -15 -20 -15 -8 0 -13 -3 -13 -7
3 -20 -2 -26 -11 -13 -8 13 -10 13 -10 -1 0 -19 -76 -89 -96 -89 -9 0 -12 -5
-8 -12 4 -8 3 -10 -2 -5 -23 22 4 86 30 70 5 -4 6 -1 2 5 -3 6 -2 13 4 17 6 4
8 10 5 15 -3 4 11 20 31 35 25 19 32 30 24 35 -9 5 -9 9 -1 14 6 4 9 12 6 17
-4 5 -1 9 5 9 7 0 10 7 6 15 -3 8 0 14 7 12 7 -1 11 6 11 15 -1 9 4 14 11 12
7 -3 16 0 21 7 5 8 3 10 -7 4 -11 -7 -12 -6 -2 7 7 8 10 18 6 21 -3 4 -1 13 5
20 7 8 9 17 5 20 -3 4 -1 7 5 7 7 0 11 6 10 13 -2 6 4 12 13 11 9 -1 16 5 16
12 0 7 -5 11 -11 8 -6 -3 -2 2 8 10 11 9 16 16 10 16 -5 0 -2 5 6 10 10 7 11
10 2 10 -13 0 -2 26 27 63 16 19 26 23 15 5z m422 -20 c3 -10 2 -23 -2 -29 -4
-8 -3 -9 4 -5 7 4 17 -3 24 -18 6 -14 15 -26 19 -26 4 0 5 -9 2 -20 -3 -11 -1
-20 4 -20 13 0 13 -32 -1 -50 -6 -8 0 -6 12 4 17 15 21 16 17 5 -3 -9 1 -22
10 -29 8 -7 15 -21 15 -31 0 -11 5 -19 10 -19 12 0 9 -22 -5 -32 -6 -5 -5 -8
3 -8 7 0 11 -4 7 -9 -3 -5 1 -16 10 -24 13 -13 13 -16 0 -21 -8 -3 -15 -11
-14 -18 0 -10 2 -10 6 0 2 6 9 12 14 12 5 0 8 -6 7 -12 -2 -7 3 -12 11 -10 8
2 11 -3 8 -11 -3 -8 0 -25 7 -39 7 -13 11 -36 9 -52 -2 -15 0 -25 5 -22 4 2 7
-11 5 -31 -3 -42 5 -61 19 -42 8 11 9 11 5 -1 -2 -8 -9 -15 -14 -15 -6 0 -15
-4 -20 -8 -4 -5 -2 -7 6 -5 7 2 16 -3 19 -11 2 -8 0 -11 -5 -8 -5 3 -10 0 -10
-8 0 -10 4 -12 12 -5 16 13 30 -1 33 -35 8 -92 8 -105 0 -105 -5 0 -7 -4 -4
-9 3 -4 -4 -8 -15 -7 -11 0 -24 7 -28 15 -5 8 -14 10 -21 6 -8 -5 -11 -4 -6 3
3 6 1 14 -5 18 -7 4 -9 3 -6 -2 3 -6 2 -16 -4 -24 -7 -13 -9 -12 -9 3 0 20
-16 23 -23 5 -4 -9 -6 -8 -6 2 -1 10 -11 15 -33 14 -18 0 -42 7 -52 15 -17 14
-18 14 -12 1 8 -16 -8 2 -34 39 -8 12 -21 19 -28 16 -8 -3 -16 3 -19 15 -3 11
-9 17 -14 14 -5 -3 -9 2 -9 11 0 10 5 13 12 9 7 -5 8 -3 3 5 -5 9 -11 9 -17 3
-12 -12 -38 8 -38 28 0 6 -7 13 -15 16 -8 4 -12 11 -8 18 4 6 -2 4 -12 -4 -17
-14 -18 -13 -12 2 4 11 2 17 -6 15 -7 -1 -11 4 -9 11 1 7 -5 15 -13 18 -8 3
-12 11 -8 17 3 5 1 7 -5 3 -6 -3 -17 0 -25 8 -8 8 -18 12 -22 8 -5 -4 -5 -1
-1 6 4 7 1 15 -8 18 -9 3 -16 13 -16 21 0 8 -3 12 -7 10 -5 -3 -14 1 -21 9
-10 11 -10 14 0 14 9 0 10 2 2 8 -9 5 -8 11 2 20 8 7 14 10 14 7 0 -3 11 2 25
11 14 9 23 20 20 24 -7 11 35 41 47 34 7 -5 12 17 9 38 0 4 6 5 15 1 9 -3 14
0 12 8 -2 8 4 13 14 13 10 -1 17 1 16 5 -3 16 15 60 23 55 5 -3 9 2 9 12 0 12
3 14 13 6 9 -8 13 -7 14 6 3 43 8 62 15 62 4 0 8 7 8 15 0 8 5 15 10 15 6 0 9
3 8 8 -1 4 2 19 6 33 8 30 33 34 42 7z m-1701 -42 c7 3 20 -5 29 -17 9 -14 27
-24 43 -25 16 -1 28 -3 28 -4 0 -1 9 -4 21 -5 19 -2 74 -33 74 -42 0 -2 -10 1
-22 7 -22 11 -22 10 -4 -4 10 -9 23 -13 28 -10 5 3 16 0 25 -8 11 -8 14 -9 10
-1 -8 12 14 3 50 -20 15 -10 5 -37 -14 -37 -8 0 -11 -4 -8 -10 3 -6 -1 -7 -9
-4 -9 3 -16 1 -16 -5 0 -6 -6 -10 -12 -8 -7 1 -12 -4 -10 -11 1 -8 -2 -11 -8
-7 -5 3 -10 1 -10 -4 0 -6 -6 -10 -12 -8 -7 1 -12 -6 -12 -15 1 -10 -2 -16 -6
-13 -5 3 -11 1 -15 -5 -4 -6 -11 -8 -16 -5 -5 4 -9 1 -9 -6 0 -7 -9 -2 -20 11
-11 13 -20 31 -20 42 0 10 -6 18 -14 18 -13 0 -31 27 -28 43 1 4 -4 7 -10 7
-9 0 -8 4 2 10 10 6 11 10 3 10 -7 0 -13 9 -13 20 0 11 -11 27 -25 36 -14 9
-22 20 -19 25 3 5 0 9 -6 9 -6 0 -8 5 -5 10 3 6 1 10 -5 10 -7 0 -6 5 2 14 7
8 14 10 16 6 2 -5 9 -7 17 -4z m1059 -15 c5 0 1 -11 -10 -23 -10 -12 -13 -18
-5 -13 9 5 12 3 9 -6 -3 -8 -10 -13 -16 -12 -7 2 -9 -4 -5 -14 5 -13 2 -15
-15 -11 -12 4 -25 1 -29 -4 -3 -6 -1 -8 4 -5 12 8 25 -17 15 -28 -4 -4 -8 -10
-8 -13 -7 -32 -19 -52 -35 -57 -10 -4 -19 -11 -19 -16 0 -6 6 -7 13 -3 7 4 9
3 4 -2 -5 -5 -13 -10 -18 -10 -5 -1 -12 -2 -15 -3 -4 0 0 -9 7 -18 10 -11 10
-14 2 -9 -9 4 -13 1 -13 -10 0 -9 -11 -27 -25 -40 -14 -13 -25 -20 -25 -16 0
4 -14 13 -31 19 -17 7 -33 21 -36 32 -3 12 -12 21 -20 21 -8 0 -11 4 -8 10 3
6 -1 7 -9 4 -9 -3 -27 4 -42 15 -15 12 -22 21 -17 21 5 0 15 -6 23 -12 12 -11
12 -10 1 5 -7 9 -19 17 -26 17 -19 0 -72 30 -55 31 11 0 11 2 2 6 -19 8 25 43
57 45 14 1 33 2 41 4 8 1 21 2 28 3 7 1 10 7 7 14 -4 6 0 4 8 -6 13 -16 15
-16 21 -2 3 9 2 13 -4 10 -6 -3 -10 -2 -10 3 0 5 9 12 20 15 13 3 18 1 14 -6
-3 -7 1 -4 9 5 8 10 17 15 20 11 4 -3 7 -2 7 3 0 10 11 12 84 16 19 1 32 6 30
10 -3 4 0 8 6 8 6 0 9 4 6 8 -4 7 23 8 58 3z m-1049 -71 c3 -6 -1 -7 -9 -4
-18 7 -21 14 -7 14 6 0 13 -4 16 -10z m493 -160 c2 -6 8 -8 13 -4 5 3 9 -2 9
-11 0 -9 4 -14 9 -11 5 3 11 -3 14 -13 3 -14 11 -18 26 -14 14 3 28 -1 39 -13
9 -11 29 -25 44 -33 15 -8 25 -18 22 -23 -3 -4 2 -8 11 -8 10 0 13 -5 9 -12
-5 -7 -3 -8 5 -3 13 8 54 -28 44 -39 -4 -3 -2 -6 4 -6 6 0 14 -7 17 -16 6 -15
4 -15 -11 -3 -9 8 -14 9 -11 4 7 -12 -13 -53 -27 -56 -25 -4 -55 -19 -54 -26
3 -20 -2 -34 -10 -29 -5 3 -22 -1 -37 -9 -16 -8 -25 -15 -21 -15 4 0 2 -6 -5
-14 -9 -10 -15 -11 -20 -2 -5 7 -8 5 -8 -6 0 -10 -10 -20 -25 -24 -14 -3 -23
-9 -21 -13 3 -4 -4 -8 -15 -8 -11 -1 -17 2 -14 8 4 5 1 9 -4 9 -6 0 -11 -6
-12 -12 0 -10 -2 -10 -6 0 -2 6 -9 10 -14 6 -5 -3 -9 0 -9 6 0 6 -4 8 -10 5
-5 -3 -10 1 -10 9 0 8 -9 18 -20 21 -11 4 -18 11 -15 16 4 5 -3 9 -14 9 -12 0
-20 3 -20 8 1 4 1 14 0 22 -1 13 -2 13 -11 0 -8 -12 -10 -10 -10 10 0 17 -3
21 -9 12 -6 -10 -13 -6 -27 15 -10 15 -17 32 -16 37 2 5 -4 4 -12 -3 -13 -11
-15 -9 -11 9 3 16 0 20 -10 17 -19 -8 -35 42 -22 71 6 13 16 21 23 18 7 -3 15
2 18 11 4 8 13 13 21 9 8 -3 14 -2 14 2 -3 17 2 32 9 31 21 -4 42 2 38 10 -4
5 8 12 25 16 20 5 29 11 25 21 -3 7 -2 13 2 13 19 -3 33 2 27 11 -3 5 9 7 32
4 21 -2 40 -9 41 -14z m-358 -306 c0 -8 -5 -14 -12 -14 -6 0 -8 3 -5 6 3 4 1
16 -5 28 -10 19 -10 20 5 7 10 -7 17 -20 17 -27z m748 -3 c10 -6 8 -13 -8 -32
-12 -13 -19 -19 -16 -12 4 6 2 15 -4 18 -6 4 -10 3 -9 -2 4 -23 -2 -32 -18
-26 -10 4 -14 2 -10 -4 4 -6 1 -13 -7 -16 -8 -3 -17 2 -21 11 -3 9 -3 13 1 10
3 -4 16 4 29 18 14 15 29 22 39 18 9 -3 16 -2 16 4 0 6 -6 13 -12 15 -7 3 -8
6 -3 6 6 0 16 -3 23 -8z m1193 -94 c-10 -9 -11 -8 -5 6 3 10 9 15 12 12 3 -3
0 -11 -7 -18z"/>
<path d="M3009 4683 c-13 -16 -12 -17 4 -4 16 13 21 21 13 21 -2 0 -10 -8 -17
-17z"/>
<path d="M3570 3136 c0 -2 7 -7 16 -10 8 -3 12 -2 9 4 -6 10 -25 14 -25 6z"/>
<path d="M2670 3021 c0 -5 7 -12 16 -15 14 -5 15 -4 4 9 -14 17 -20 19 -20 6z"/>
<path d="M1541 1948 c5 -10 11 -18 12 -18 2 0 3 8 3 18 0 10 -6 19 -13 19 -8
0 -9 -6 -2 -19z"/>
<path d="M1525 1891 c-3 -5 -2 -12 3 -15 5 -3 9 1 9 9 0 17 -3 19 -12 6z"/>
<path d="M3720 1190 c-9 -6 -10 -10 -3 -10 6 0 15 5 18 10 8 12 4 12 -15 0z"/>
<path d="M4089 3623 c-13 -16 -12 -17 4 -4 16 13 21 21 13 21 -2 0 -10 -8 -17
-17z"/>
<path d="M1210 2771 c0 -6 4 -13 10 -16 6 -3 7 1 4 9 -7 18 -14 21 -14 7z"/>
<path d="M1170 2670 c0 -5 5 -10 11 -10 5 0 7 5 4 10 -3 6 -8 10 -11 10 -2 0
-4 -4 -4 -10z"/>
<path d="M4020 2590 c0 -6 7 -10 15 -10 8 0 15 2 15 4 0 2 -7 6 -15 10 -8 3
-15 1 -15 -4z"/>
<path d="M1230 1666 c0 -2 8 -10 18 -17 15 -13 16 -12 3 4 -13 16 -21 21 -21
13z"/>
<path d="M1170 1256 c0 -2 7 -9 15 -16 13 -11 14 -10 9 4 -5 14 -24 23 -24 12z"/>
<path d="M2539 313 c-13 -16 -12 -17 4 -4 9 7 17 15 17 17 0 8 -8 3 -21 -13z"/>
</g>
</svg>
